<?xml version="1.0" standalone="no"?>
<!DOCTYPE svg PUBLIC "-//W3C//DTD SVG 20010904//EN"
 "http://www.w3.org/TR/2001/REC-SVG-20010904/DTD/svg10.dtd">
<svg version="1.0" xmlns="http://www.w3.org/2000/svg"
 width="299.000000pt" height="168.000000pt" viewBox="0 0 299.000000 168.000000"
 preserveAspectRatio="xMidYMid meet">

<g transform="translate(0.000000,168.000000) scale(0.100000,-0.100000)"
fill="#000000" stroke="none">
<path d="M0 840 l0 -840 1495 0 1495 0 0 840 0 840 -1495 0 -1495 0 0 -840z
m1636 375 c20 -30 101 -91 129 -97 15 -2 20 -11 21 -33 0 -34 36 -120 61 -148
14 -15 15 -22 5 -38 -13 -20 -34 -202 -30 -254 2 -24 -1 -31 -18 -33 -12 -2
-54 -37 -94 -78 -40 -40 -75 -74 -78 -74 -3 0 -34 15 -69 32 -60 31 -74 51
-55 74 25 27 34 212 13 252 -6 11 -6 33 -1 57 5 21 8 102 7 181 -2 131 0 144
16 144 9 0 25 9 34 20 23 27 39 25 59 -5z m-251 -19 c-19 -29 -58 -56 -80 -56
-18 0 -20 31 -3 48 17 17 33 15 18 -3 -10 -12 -9 -15 8 -15 11 0 27 11 36 25
9 14 21 25 26 25 6 0 3 -11 -5 -24z m69 5 c3 -5 -3 -11 -14 -14 -11 -3 -20
-11 -20 -17 0 -7 6 -10 13 -7 8 3 20 2 27 -3 18 -11 4 -100 -16 -100 -8 0 -14
-3 -14 -7 -1 -5 -5 -27 -9 -50 -9 -46 2 -60 13 -18 4 14 11 25 16 25 6 0 10
-50 10 -125 0 -114 -2 -125 -18 -125 -52 0 -87 92 -57 149 10 21 14 43 10 61
-4 18 0 42 10 64 9 19 15 47 13 63 l-4 28 -12 -30 c-20 -50 -27 -58 -60 -69
-17 -6 -31 -15 -29 -21 1 -5 6 -9 10 -7 4 1 17 -2 27 -8 24 -13 26 -48 5 -76
-8 -10 -15 -34 -15 -51 0 -24 -5 -33 -17 -33 -40 0 -66 54 -43 90 7 11 11 9
19 -13 14 -37 21 -34 21 8 0 24 -5 35 -15 35 -8 0 -15 9 -15 20 0 33 -17 23
-34 -20 l-16 -41 -30 18 c-23 13 -30 25 -30 48 l0 30 18 -35 c16 -34 40 -41
34 -10 -2 8 -4 22 -6 30 -1 8 -6 27 -10 43 -9 31 8 82 30 91 18 7 17 -14 -1
-38 -21 -28 -19 -63 6 -76 26 -15 34 -7 20 18 -6 12 -11 25 -11 30 0 19 84 72
112 72 22 0 28 5 28 22 0 35 40 72 54 49z m-237 -313 c11 -13 26 -33 32 -45 6
-12 33 -32 61 -44 39 -18 47 -25 35 -31 -26 -15 -17 -30 14 -23 33 7 85 -15
95 -40 9 -25 7 -105 -3 -105 -5 0 -12 14 -16 30 -9 41 -25 38 -25 -5 0 -40
-21 -55 -51 -36 -27 16 -26 -9 1 -32 25 -21 27 -21 47 -2 21 22 47 15 51 -13
4 -26 -23 -62 -46 -62 -12 0 -11 3 4 14 26 20 13 30 -20 15 -32 -15 -45 -5
-75 56 l-19 40 31 15 c17 8 32 21 35 28 4 14 -24 16 -33 2 -3 -6 -18 -7 -32
-4 l-26 7 6 -62 c4 -39 3 -61 -4 -61 -15 0 -62 50 -54 58 3 4 11 -1 16 -11 6
-9 14 -15 20 -12 12 8 12 45 -2 45 -5 0 -24 15 -41 33 -29 30 -30 31 -23 7 6
-24 6 -25 -10 -5 -9 11 -14 29 -11 39 3 11 0 26 -6 33 -8 10 -8 17 0 25 8 8
14 4 22 -16 5 -15 10 -31 10 -36 0 -5 7 -16 16 -24 17 -18 54 -22 54 -6 0 6
-6 10 -14 10 -23 0 -37 27 -34 67 l3 38 30 -45 c30 -44 31 -45 88 -46 46 -1
55 1 47 12 -6 7 -28 15 -50 19 -21 4 -46 12 -56 20 -16 11 -17 16 -6 40 12 26
12 27 -12 21 -18 -4 -32 1 -53 19 l-28 24 25 1 24 0 -22 22 c-17 17 -24 20
-34 10 -19 -19 -26 -14 -20 13 6 31 32 33 59 3z m-24 -93 c11 -15 13 -26 7
-30 -15 -9 -40 14 -40 36 0 25 11 23 33 -6z m134 -301 c-9 -9 -28 6 -21 18 4
6 10 6 17 -1 6 -6 8 -13 4 -17z"/>
<path d="M1564 1175 c-3 -8 8 -43 25 -77 17 -35 29 -54 27 -43 -3 11 -8 46
-12 78 -4 39 -11 57 -20 57 -8 0 -17 -7 -20 -15z"/>
<path d="M1623 1165 c4 -8 9 -48 13 -90 4 -42 10 -78 15 -80 10 -7 79 78 79
96 -1 13 -90 89 -105 89 -4 0 -5 -7 -2 -15z"/>
<path d="M1551 1068 c-1 -39 3 -50 26 -67 14 -12 28 -19 31 -17 2 3 -9 33 -26
68 l-30 63 -1 -47z"/>
<path d="M1706 1014 c-21 -25 -36 -48 -32 -51 10 -10 136 -31 136 -23 0 16
-50 120 -57 120 -5 -1 -25 -21 -47 -46z"/>
<path d="M1548 930 c-1 -28 0 -50 3 -50 12 0 49 47 49 63 0 14 -27 37 -43 37
-3 0 -7 -23 -9 -50z"/>
<path d="M1649 918 c-9 -7 -28 -44 -42 -81 l-26 -69 24 16 c12 8 60 38 105 67
44 28 78 55 73 60 -16 15 -117 21 -134 7z"/>
<path d="M1572 867 c-21 -22 -31 -77 -14 -77 7 0 44 92 38 97 -1 2 -12 -7 -24
-20z"/>
<path d="M1687 809 c-76 -49 -86 -58 -67 -64 49 -15 86 3 124 61 21 31 36 57
34 58 -2 2 -43 -23 -91 -55z"/>
<path d="M1768 801 c-20 -32 -36 -66 -34 -74 2 -16 54 -63 60 -56 5 6 19 189
15 189 -2 0 -21 -26 -41 -59z"/>
<path d="M1571 715 c-9 -11 -33 -126 -28 -131 2 -2 34 27 71 65 l68 69 -52 3
c-28 2 -55 0 -59 -6z"/>
<path d="M1640 639 c-39 -34 -69 -63 -67 -65 2 -2 30 6 63 19 32 13 78 29 101
36 46 15 47 20 3 51 l-29 20 -71 -61z"/>
<path d="M1651 575 c-51 -19 -95 -36 -98 -38 -2 -3 11 -14 29 -25 28 -18 35
-19 57 -7 23 12 122 106 111 105 -3 -1 -47 -16 -99 -35z"/>
<path d="M1337 1090 c-14 -11 -30 -20 -36 -20 -22 0 -10 -18 15 -23 20 -3 28
0 31 13 3 10 11 21 19 24 15 6 19 26 5 26 -4 0 -20 -9 -34 -20z"/>
<path d="M1420 908 c0 -7 -7 -26 -16 -43 -14 -28 -14 -30 8 -47 31 -24 42 -22
34 5 -3 12 -6 39 -6 60 0 20 -4 37 -10 37 -5 0 -10 -6 -10 -12z"/>
</g>
</svg>
